<svg xmlns="http://www.w3.org/2000/svg" viewBox="0 0 600 137.27"><defs><style>.cls-1{fill:#b3dcff;}.cls-2{fill:#5ecc62;}.cls-3{fill:#00ad45;}</style></defs><title>Asset 1</title><g id="Layer_2" data-name="Layer 2"><g id="Layer_1-2" data-name="Layer 1"><path d="M215,104.59H195.34V36h20c15.42,0,22.78,7,22.78,17.81,0,7.16-4,11.84-9.95,14.32,7.66,2.39,12.73,7.36,12.73,16.51C240.9,98.12,231.15,104.59,215,104.59ZM214.64,46H208v18.2H214c7.76,0,11.84-3.48,11.84-9.35C225.88,49.38,222.6,46,214.64,46Zm.2,27.55H208v21H215c8.36,0,13.23-3.48,13.23-10.34S223.59,73.55,214.84,73.55Z"/><path d="M276.51,104.59l-1-6.27c-3.88,4.08-8.85,7.26-16,7.26-8.16,0-13.63-5-13.63-13.33,0-11.64,9.55-16.71,28.94-18.6V72.26c0-5.17-3-7.16-8.26-7.16-5.57,0-10.84,1.59-16,3.88l-1.49-9.55a49.74,49.74,0,0,1,19.1-3.88c12.43,0,18.6,4.58,18.6,16.12v32.92Zm-1.69-24C261,82.31,257.71,86.39,257.71,91c0,3.48,2.19,5.57,5.87,5.57,4.08,0,8-1.89,11.24-5.17Z"/><path d="M312.91,105.49a41.79,41.79,0,0,1-18.7-4.67l1.59-9.95c5.17,3.38,11.54,5.67,17.51,5.67,5.17,0,8-1.89,8-5,0-3.38-2.09-4.78-9.75-6.66-11.64-3-16.51-6.37-16.51-15.12,0-8.26,6.56-14.13,17.7-14.13A40.55,40.55,0,0,1,329.52,59L327.93,69a32.83,32.83,0,0,0-15.22-4.38c-4.48,0-6.66,1.69-6.66,4.38s1.79,4,9,5.87C327.43,78,332.3,81.41,332.3,90.46,332.3,99.91,325.54,105.49,312.91,105.49Z"/><path d="M379.75,82.9H348.91c.6,9.35,5.57,13.43,12.93,13.43,6.17,0,11.24-2.29,16.51-6l1.39,9.35a32.83,32.83,0,0,1-19.2,5.87c-13.43,0-23.47-7.66-23.47-25,0-15.62,9.35-25.07,21.88-25.07,14.42,0,20.89,10.84,20.89,24.47C379.85,81,379.75,82.21,379.75,82.9Zm-21.09-19.1c-4.78,0-8.66,3.78-9.55,11.64h19.1C367.41,68,364.43,63.81,358.66,63.81Z"/><path d="M407.54,105.49c-13.33,0-22.78-9-22.78-24.67,0-16.71,10.44-25.27,23.17-25.27a27.18,27.18,0,0,1,15,4.08l-1.69,10.74a19.85,19.85,0,0,0-12.63-4.48c-6.86,0-11.84,5.07-11.84,14.62,0,9.95,5.37,14.72,12.63,14.72,4.18,0,8-1.1,12.43-4.58l1.59,10.15A26.29,26.29,0,0,1,407.54,105.49Z"/><path d="M457,104.59l-1-6.27c-3.88,4.08-8.85,7.26-16,7.26-8.16,0-13.63-5-13.63-13.33,0-11.64,9.55-16.71,28.94-18.6V72.26c0-5.17-3-7.16-8.26-7.16-5.57,0-10.84,1.59-16,3.88l-1.49-9.55a49.74,49.74,0,0,1,19.1-3.88c12.43,0,18.6,4.58,18.6,16.12v32.92Zm-1.69-24c-13.83,1.69-17.11,5.77-17.11,10.34,0,3.48,2.19,5.57,5.87,5.57,4.08,0,8-1.89,11.24-5.17Z"/><path d="M534.16,104.59V73.16c0-4.18-1.49-7.06-5.87-7.06-3.68,0-7.16,2.39-10.64,6v32.53H505.71V73.16c0-4.18-1.59-7.06-6-7.06-3.68,0-7.16,2.39-10.64,6v32.53H477.16v-48h10.14l1.1,6.76c4.48-4.28,9.35-7.76,15.81-7.76,6.86,0,10.54,3.08,12.34,7.76,4.28-4.28,9.55-7.76,16-7.76,9.05,0,13.53,5.47,13.53,14.42v34.61Z"/><path d="M579,105.09a31.17,31.17,0,0,1-11.14-1.89v18.1l-11.94,1.79V56.55h10.14l1.1,6.56c3.38-3.88,8.06-7.56,14.72-7.56,10,0,18.1,7.56,18.1,23.67C600,97.13,590.05,105.09,579,105.09Zm-.3-39c-4.28,0-7.66,2.69-10.84,6.76V93.45a18.7,18.7,0,0,0,9.25,2.09c6.17,0,10.84-5.07,10.84-15.62C588,70.67,584.09,66.1,578.71,66.1Z"/><path class="cls-1" d="M82.35,0C38,0,3.29,56.4,0,104c13.91,24.15,47.46,33.22,82.35,33.22S150.8,128.19,164.7,104C161.42,56.4,126.69,0,82.35,0Z"/><path class="cls-2" d="M133.68,59.22c-9.73-12.55-22.14-25.83-29.33-25.83S77,69,67.82,69s-14-16.2-25.36-16.14c-15.45.09-30.6,45.52-30.6,45.52s6.26,27.77,71.79,27.77,70.76-27.31,70.76-27.31S147.67,77.26,133.68,59.22Z"/><path d="M47.24,94.49a8.3,8.3,0,1,1,8.3,8.3,8.3,8.3,0,0,1-8.3-8.3m53.63,0a8.3,8.3,0,1,0,8.3-8.3,8.3,8.3,0,0,0-8.3,8.3m-1.49,12.05a2.55,2.55,0,0,0-4.53-2.37c-.14.26-3.47,6.25-12.29,6.25A15.24,15.24,0,0,1,69.77,104a2.55,2.55,0,0,0-4.36,2.66,20.35,20.35,0,0,0,17.14,8.84C94.57,115.54,99.18,106.91,99.37,106.55Z"/><path class="cls-3" d="M68.84,84.19c-10.18,0-15.39-10-18.22-16.24-2.55-5.58-3-14.4-10.2-14.64a5.61,5.61,0,0,1,2-.45C53.8,52.86,58.59,69,67.82,69s29.33-35.6,36.53-35.6a10.25,10.25,0,0,1,4.54,1.33,4.61,4.61,0,0,0-4,1.17C102.55,38.21,81.44,84.19,68.84,84.19Z"/></g></g></svg>