<svg xmlns="http://www.w3.org/2000/svg" viewBox="0 0 180 41.18"><defs><style>.cls-1{fill:#b3dcff;}.cls-2{fill:#5ecc62;}.cls-3{fill:#00ad45;}</style></defs><title>logo-horizontal</title><g id="Layer_2" data-name="Layer 2"><g id="Layer_1-2" data-name="Layer 1"><path d="M64.51,31.38H58.6V10.79h6c4.63,0,6.83,2.09,6.83,5.34a4.44,4.44,0,0,1-3,4.3,4.84,4.84,0,0,1,3.82,5C72.27,29.44,69.35,31.38,64.51,31.38ZM64.39,13.8h-2v5.46h1.82c2.33,0,3.55-1,3.55-2.8S66.78,13.8,64.39,13.8Zm.06,8.27H62.39v6.3h2.12c2.51,0,4-1,4-3.1S67.08,22.07,64.45,22.07Z"/><path d="M83,31.38l-.3-1.88a6.37,6.37,0,0,1-4.8,2.18,3.77,3.77,0,0,1-4.09-4c0-3.49,2.86-5,8.68-5.58v-.42c0-1.55-.9-2.15-2.48-2.15a11.85,11.85,0,0,0-4.8,1.16l-.45-2.86a14.92,14.92,0,0,1,5.73-1.16C84.18,16.67,86,18,86,21.5v9.88Zm-.51-7.19c-4.15.51-5.13,1.73-5.13,3.1A1.58,1.58,0,0,0,79.07,29a4.8,4.8,0,0,0,3.37-1.55Z"/><path d="M93.87,31.65a12.54,12.54,0,0,1-5.61-1.4l.48-3A10,10,0,0,0,94,29c1.55,0,2.39-.57,2.39-1.49s-.63-1.43-2.92-2c-3.49-.9-5-1.91-5-4.54s2-4.24,5.31-4.24a12.16,12.16,0,0,1,5,1l-.48,3a9.85,9.85,0,0,0-4.57-1.31c-1.34,0-2,.51-2,1.31s.54,1.19,2.69,1.76c3.73,1,5.19,2,5.19,4.68S97.66,31.65,93.87,31.65Z"/><path d="M113.92,24.87h-9.25c.18,2.81,1.67,4,3.88,4a8.39,8.39,0,0,0,5-1.79l.42,2.8a9.85,9.85,0,0,1-5.76,1.76c-4,0-7-2.3-7-7.49,0-4.68,2.8-7.52,6.56-7.52C112,16.67,114,19.92,114,24,114,24.3,113.92,24.66,113.92,24.87Zm-6.33-5.73c-1.43,0-2.6,1.13-2.86,3.49h5.73C110.22,20.4,109.33,19.14,107.6,19.14Z"/><path d="M122.26,31.65c-4,0-6.83-2.69-6.83-7.4,0-5,3.13-7.58,7-7.58a8.15,8.15,0,0,1,4.51,1.22l-.51,3.22a6,6,0,0,0-3.79-1.34c-2.06,0-3.55,1.52-3.55,4.39s1.61,4.42,3.79,4.42a5.69,5.69,0,0,0,3.73-1.37l.48,3A7.89,7.89,0,0,1,122.26,31.65Z"/><path d="M137.09,31.38l-.3-1.88a6.37,6.37,0,0,1-4.8,2.18,3.77,3.77,0,0,1-4.09-4c0-3.49,2.86-5,8.68-5.58v-.42c0-1.55-.9-2.15-2.48-2.15a11.85,11.85,0,0,0-4.8,1.16l-.45-2.86a14.92,14.92,0,0,1,5.73-1.16c3.73,0,5.58,1.37,5.58,4.83v9.88Zm-.51-7.19c-4.15.51-5.13,1.73-5.13,3.1A1.58,1.58,0,0,0,133.21,29a4.8,4.8,0,0,0,3.37-1.55Z"/><path d="M160.25,31.38V21.95c0-1.25-.45-2.12-1.76-2.12a4.76,4.76,0,0,0-3.19,1.79v9.76h-3.58V21.95c0-1.25-.48-2.12-1.79-2.12a4.76,4.76,0,0,0-3.19,1.79v9.76h-3.58V17h3l.33,2a6.84,6.84,0,0,1,4.74-2.33A3.54,3.54,0,0,1,155,19a6.86,6.86,0,0,1,4.8-2.33c2.72,0,4.06,1.64,4.06,4.33V31.38Z"/><path d="M173.7,31.53a9.35,9.35,0,0,1-3.34-.57v5.43l-3.58.54V17h3l.33,2a5.8,5.8,0,0,1,4.42-2.27c3,0,5.43,2.27,5.43,7.1C180,29.14,177,31.53,173.7,31.53Zm-.09-11.7c-1.28,0-2.3.81-3.25,2V28a5.61,5.61,0,0,0,2.77.63c1.85,0,3.25-1.52,3.25-4.69C176.39,21.2,175.23,19.83,173.61,19.83Z"/><path class="cls-1" d="M24.71,0C11.41,0,1,16.92,0,31.21c4.17,7.24,14.24,10,24.71,10s20.53-2.72,24.7-10C48.42,16.92,38,0,24.71,0Z"/><path class="cls-2" d="M40.1,17.77C37.18,14,33.46,10,31.3,10s-8.19,10.68-11,10.68-4.21-4.86-7.61-4.84c-4.64,0-9.18,13.65-9.18,13.65s1.88,8.33,21.54,8.33,21.23-8.19,21.23-8.19A42.89,42.89,0,0,0,40.1,17.77Z"/><path d="M14.17,28.35a2.49,2.49,0,1,1,2.49,2.49,2.49,2.49,0,0,1-2.49-2.49m16.09,0a2.49,2.49,0,1,0,2.49-2.49,2.49,2.49,0,0,0-2.49,2.49M29.81,32a.77.77,0,0,0-1.36-.71,4.11,4.11,0,0,1-3.69,1.88,4.57,4.57,0,0,1-3.83-1.92.77.77,0,0,0-1.31.8,6.1,6.1,0,0,0,5.14,2.65A5.61,5.61,0,0,0,29.81,32Z"/><path class="cls-3" d="M20.65,25.26c-3.05,0-4.62-3-5.47-4.87-.76-1.67-.9-4.32-3.06-4.39a1.68,1.68,0,0,1,.61-.13c3.4,0,4.84,4.84,7.61,4.84S29.15,10,31.3,10a3.07,3.07,0,0,1,1.36.4,1.38,1.38,0,0,0-1.2.35C30.77,11.46,24.43,25.26,20.65,25.26Z"/></g></g></svg>